# This file uses centimeters as units for non-parametric coordinates.

mtllib bathroommirror.mtl
g default
v -2.104976 1.691612 1.344630
v -1.058921 1.691612 1.344630
v -2.104976 10.281683 1.344630
v -1.058921 10.281683 1.344630
v -2.104976 10.281683 -5.082794
v -1.058921 10.281683 -5.082794
v -2.104976 1.691612 -5.082794
v -1.058921 1.691612 -5.082794
v -1.058921 1.691612 -5.082794
v -1.058921 1.691612 1.344630
v -1.058921 10.281683 -5.082794
v -1.058921 10.281683 1.344630
v -0.742329 1.355087 -5.334596
v -0.742329 1.355087 1.596431
v -0.742329 10.618209 -5.334596
v -0.742329 10.618209 1.596431
v -1.058921 1.203738 -5.509390
v -1.058921 1.109925 -5.415578
v -1.058921 1.075587 -5.287427
v -1.058921 1.220695 -5.435152
v -1.058921 1.331888 -5.543728
v -0.791198 1.215323 -5.439172
v -0.840057 1.075587 -5.287427
v -0.840057 1.109925 -5.415578
v -0.840057 1.203738 -5.509390
v -0.840057 1.331888 -5.543728
v -1.058921 1.109925 1.677413
v -1.058921 1.203738 1.771226
v -1.058921 1.331888 1.805564
v -1.058921 1.220695 1.696988
v -1.058921 1.075587 1.549262
v -0.791198 1.215323 1.701008
v -0.840057 1.331888 1.805564
v -0.840057 1.203738 1.771226
v -0.840057 1.109925 1.677413
v -0.840057 1.075587 1.549262
v -1.058921 10.863370 -5.415578
v -1.058921 10.769557 -5.509390
v -1.058921 10.641407 -5.543728
v -1.058921 10.752600 -5.435152
v -1.058921 10.897708 -5.287427
v -0.791198 10.757973 -5.439172
v -0.840057 10.641407 -5.543728
v -0.840057 10.769557 -5.509390
v -0.840057 10.863370 -5.415578
v -0.840057 10.897708 -5.287427
v -1.058921 10.769557 1.771226
v -1.058921 10.863370 1.677413
v -1.058921 10.897708 1.549262
v -1.058921 10.752600 1.696988
v -1.058921 10.641407 1.805564
v -0.791198 10.757973 1.701008
v -0.840057 10.897708 1.549262
v -0.840057 10.863370 1.677413
v -0.840057 10.769557 1.771226
v -0.840057 10.641407 1.805564
vt 0.375000 0.000000
vt 0.625000 0.000000
vt 0.375000 0.250000
vt 0.625000 0.250000
vt 0.375000 0.500000
vt 0.625000 0.500000
vt 0.375000 0.750000
vt 0.625000 0.750000
vt 0.375000 1.000000
vt 0.625000 1.000000
vt 0.875000 0.000000
vt 0.875000 0.250000
vt 0.125000 0.000000
vt 0.125000 0.250000
vt 0.875000 0.000000
vt 0.625000 0.000000
vt 0.875000 0.250000
vt 0.875000 0.000000
vt 0.625000 0.250000
vt 0.625000 0.000000
vt 0.875000 0.250000
vt 0.625000 0.250000
vt 0.866281 0.000000
vt 0.875000 0.006524
vt 0.625000 0.006524
vt 0.633719 0.000000
vt 0.875000 0.243476
vt 0.866281 0.250000
vt 0.633719 0.250000
vt 0.625000 0.243476
vt 0.875000 0.006524
vt 0.875000 0.000000
vt 0.866281 0.000000
vt 0.875000 0.000000
vt 0.633719 0.000000
vt 0.625000 0.000000
vt 0.625000 0.006524
vt 0.625000 0.000000
vt 0.866281 0.250000
vt 0.875000 0.250000
vt 0.875000 0.243476
vt 0.875000 0.250000
vt 0.625000 0.243476
vt 0.625000 0.250000
vt 0.633719 0.250000
vt 0.625000 0.250000
vt 0.873817 0.002471
vt 0.870830 0.000705
vt 0.870679 0.000850
vt 0.873615 0.002733
vt 0.629170 0.000705
vt 0.626183 0.002471
vt 0.626385 0.002733
vt 0.629321 0.000850
vt 0.870830 0.249295
vt 0.873818 0.247529
vt 0.873615 0.247267
vt 0.870679 0.249150
vt 0.626182 0.247529
vt 0.629170 0.249295
vt 0.629321 0.249150
vt 0.626385 0.247267
vn 0.000000 0.000000 1.000000
vn 0.000000 0.000000 1.000000
vn 0.000000 0.000000 1.000000
vn 0.000000 0.000000 1.000000
vn 0.000000 1.000000 0.000000
vn 0.000000 1.000000 0.000000
vn 0.000000 1.000000 0.000000
vn 0.000000 1.000000 0.000000
vn 0.000000 0.000000 -1.000000
vn 0.000000 0.000000 -1.000000
vn 0.000000 0.000000 -1.000000
vn 0.000000 0.000000 -1.000000
vn 0.000000 -1.000000 0.000000
vn 0.000000 -1.000000 0.000000
vn 0.000000 -1.000000 0.000000
vn 0.000000 -1.000000 0.000000
vn 1.000000 0.000000 0.000000
vn 1.000000 0.000000 0.000000
vn 1.000000 0.000000 0.000000
vn 1.000000 0.000000 0.000000
vn -1.000000 0.000000 0.000000
vn -1.000000 0.000000 0.000000
vn -1.000000 0.000000 0.000000
vn -1.000000 0.000000 0.000000
vn 0.000000 -1.000000 0.000000
vn 0.000000 -1.000000 0.000000
vn 0.000000 -1.000000 0.000000
vn 0.000000 -1.000000 0.000000
vn 0.000000 0.000000 -1.000000
vn 0.000000 0.000000 -1.000000
vn 0.000000 0.000000 -1.000000
vn 0.000000 0.000000 -1.000000
vn 0.000000 1.000000 0.000000
vn 0.000000 1.000000 0.000000
vn 0.000000 1.000000 0.000000
vn 0.000000 1.000000 0.000000
vn 0.000000 0.000000 1.000000
vn 0.000000 0.000000 1.000000
vn 0.000000 0.000000 1.000000
vn 0.000000 0.000000 1.000000
vn -1.000000 0.000000 0.000000
vn -1.000000 0.000000 0.000000
vn -1.000000 0.000000 0.000000
vn -1.000000 0.000000 0.000000
vn -1.000000 0.000000 0.000000
vn -1.000000 0.000000 -0.000000
vn -1.000000 0.000000 0.000001
vn -1.000000 0.000000 0.000001
vn -1.000000 -0.000000 0.000000
vn -1.000000 0.000000 0.000001
vn -1.000000 0.000000 0.000001
vn -1.000000 -0.000000 0.000000
vn -1.000000 -0.000000 0.000000
vn -1.000000 -0.000000 -0.000000
vn -1.000000 -0.000000 0.000000
vn -1.000000 -0.000000 0.000000
vn -1.000000 0.000000 -0.000001
vn -1.000000 0.000000 -0.000001
vn -1.000000 0.000000 -0.000001
vn -1.000000 0.000000 -0.000001
vn 0.000000 -0.999988 0.004930
vn 0.000000 -0.999988 0.004930
vn 0.000000 -0.999988 -0.004930
vn 0.000000 -0.999988 -0.004930
vn 0.000000 -0.003638 -0.999993
vn 0.000000 -0.003638 -0.999993
vn 0.000000 0.003638 -0.999993
vn 0.000000 0.003638 -0.999993
vn 0.000000 0.999988 -0.004930
vn 0.000000 0.999988 -0.004930
vn 0.000000 0.999988 0.004930
vn 0.000000 0.999988 0.004930
vn 0.000000 0.003638 0.999993
vn 0.000000 0.003638 0.999993
vn 0.000000 -0.003638 0.999993
vn 0.000000 -0.003638 0.999993
vn 0.961023 -0.179507 -0.210268
vn 0.905919 -0.000102 -0.423452
vn 0.905919 0.000102 -0.423452
vn 0.961023 0.179507 -0.210268
vn 0.905962 -0.000000 -0.423358
vn 0.905962 -0.000000 -0.423358
vn 0.961023 -0.179507 0.210268
vn 0.943927 -0.330154 0.000099
vn 0.943927 -0.330154 -0.000099
vn 0.943960 -0.330059 0.000000
vn 0.943960 -0.330059 0.000000
vn 0.943927 0.330155 -0.000099
vn 0.943927 0.330155 0.000099
vn 0.961023 0.179507 0.210268
vn 0.943960 0.330059 0.000000
vn 0.943960 0.330059 0.000000
vn 0.905919 0.000102 0.423452
vn 0.905919 -0.000102 0.423452
vn 0.905962 -0.000000 0.423358
vn 0.905962 -0.000000 0.423358
vn 0.000000 -0.965926 -0.258819
vn 0.000000 -0.965926 -0.258819
vn 0.000000 -0.707106 -0.707108
vn 0.000000 -0.500000 -0.866026
vn 0.000000 -0.500000 -0.866026
vn 0.000000 -0.707106 -0.707108
vn 0.000000 -0.500001 0.866025
vn 0.000000 -0.500001 0.866025
vn 0.000000 -0.866026 0.500000
vn 0.000000 -0.866026 0.500000
vn 0.000000 0.500001 -0.866025
vn 0.000000 0.500001 -0.866025
vn 0.000000 0.707105 -0.707109
vn 0.000000 0.707105 -0.707109
vn 0.000000 0.965925 -0.258821
vn 0.000000 0.965925 -0.258821
vn 0.000000 0.866024 0.500002
vn 0.000000 0.866024 0.500002
vn 0.000000 0.500001 0.866025
vn 0.000000 0.500001 0.866025
vn -1.000000 0.000000 0.000000
vn -1.000000 0.000001 0.000000
vn 0.872858 -0.447955 -0.193533
vn 0.811036 -0.267651 -0.520176
vn -1.000000 0.000000 0.000000
vn -1.000000 0.000000 0.000000
vn 0.811038 -0.267650 0.520174
vn 0.872857 -0.447957 0.193533
vn -1.000000 -0.000000 0.000000
vn -1.000000 0.000000 0.000000
vn 0.811034 0.267651 -0.520180
vn 0.872856 0.447958 -0.193535
vn -1.000000 0.000000 0.000000
vn -1.000000 -0.000000 0.000000
vn 0.872855 0.447959 0.193535
vn 0.811035 0.267651 0.520178
s off
g pCube1
usemtl initialShadingGroup
f 1/1/1 2/2/2 4/4/3 3/3/4
f 3/3/5 4/4/6 6/6/7 5/5/8
f 5/5/9 6/6/10 8/8/11 7/7/12
f 7/7/13 8/8/14 2/10/15 1/9/16
f 14/16/17 13/18/18 15/21/19 16/22/20
f 7/13/21 1/1/22 3/3/23 5/14/24
f 2/2/25 8/11/26 9/15/27 10/20/28
f 8/11/29 6/12/30 11/17/31 9/15/32
f 6/12/33 4/4/34 12/19/35 11/17/36
f 4/4/37 2/2/38 10/20/39 12/19/40
s 1
f 10/20/41 9/15/42 20/32/43 19/23/44 31/35/45 30/36/46
f 9/15/47 11/17/48 40/40/49 39/27/50 21/31/51 20/32/43
f 11/17/52 12/19/53 50/44/54 49/29/55 41/39/56 40/40/49
f 12/19/57 10/20/58 30/36/46 29/25/59 51/43/60 50/44/54
s 5
f 36/26/61 31/35/62 19/23/63 23/33/64
s 6
f 26/24/65 21/31/66 39/27/67 43/41/68
s 5
f 46/28/69 41/39/70 49/29/71 53/45/72
f 56/30/73 51/43/74 29/25/75 33/37/76
s 9
f 22/34/77 26/24/78 43/41/79 42/42/80 15/21/81 13/18/82
f 32/38/83 36/26/84 23/33/85 22/34/77 13/18/86 14/16/87
f 42/42/80 46/28/88 53/45/89 52/46/90 16/22/91 15/21/92
f 52/46/90 56/30/93 33/37/94 32/38/83 14/16/95 16/22/96
s 5
f 19/23/63 18/48/97 24/49/98 23/33/64
s 6
f 18/48/99 17/47/100 25/50/101 24/49/102
f 17/47/100 21/31/66 26/24/65 25/50/101
s 5
f 29/25/75 28/52/103 34/53/104 33/37/76
f 28/52/103 27/51/105 35/54/106 34/53/104
f 27/51/105 31/35/62 36/26/61 35/54/106
s 6
f 39/27/67 38/56/107 44/57/108 43/41/68
f 38/56/107 37/55/109 45/58/110 44/57/108
s 5
f 37/55/111 41/39/70 46/28/69 45/58/112
f 49/29/71 48/60/113 54/61/114 53/45/72
f 48/60/113 47/59/115 55/62/116 54/61/114
f 47/59/115 51/43/74 56/30/73 55/62/116
s 1
f 20/32/43 21/31/51 17/47/117
f 20/32/43 17/47/117 18/48/118
f 20/32/43 18/48/118 19/23/44
s 9
f 22/34/77 23/33/85 24/49/119
f 22/34/77 24/49/119 25/50/120
f 22/34/77 25/50/120 26/24/78
s 1
f 30/36/46 31/35/45 27/51/121
f 30/36/46 27/51/121 28/52/122
f 30/36/46 28/52/122 29/25/59
s 9
f 32/38/83 33/37/94 34/53/123
f 32/38/83 34/53/123 35/54/124
f 32/38/83 35/54/124 36/26/84
s 1
f 40/40/49 41/39/56 37/55/125
f 40/40/49 37/55/125 38/56/126
f 40/40/49 38/56/126 39/27/50
s 9
f 42/42/80 43/41/79 44/57/127
f 42/42/80 44/57/127 45/58/128
f 42/42/80 45/58/128 46/28/88
s 1
f 50/44/54 51/43/60 47/59/129
f 50/44/54 47/59/129 48/60/130
f 50/44/54 48/60/130 49/29/55
s 9
f 52/46/90 53/45/89 54/61/131
f 52/46/90 54/61/131 55/62/132
f 52/46/90 55/62/132 56/30/93
